<svg xmlns="http://www.w3.org/2000/svg" width="21" height="21" viewBox="0 0 21 21"><g transform="translate(-12998 -5568)"><path d="M16.122,70.727a2,2,0,0,1-.259.969L10.773,66,15.808,61.6a2,2,0,0,1,.314,1.071v8.061ZM8.061,67.035l7.006-6.13a1.99,1.99,0,0,0-.961-.254H2.015a1.983,1.983,0,0,0-.96.254Zm1.953-.371-1.622,1.42a.506.506,0,0,1-.663,0l-1.622-1.42L.953,72.433a1.991,1.991,0,0,0,1.063.31H14.107a1.991,1.991,0,0,0,1.063-.31ZM.314,61.6A2,2,0,0,0,0,62.666v8.061a1.991,1.991,0,0,0,.259.969L5.349,66Z" transform="translate(13000 5511.349)" fill="white"></path><rect width="21" height="21" transform="translate(12998 5568)" fill="none"></rect></g></svg>